<svg height="960" viewBox="0 0 960 960" width="960" xmlns="http://www.w3.org/2000/svg">
  <path
    d="m377.111246 61.9999999 1.933196.0123014 317.695836 3.1164278c140.456252 1.3778013 254.259722 115.9155479 254.259722 256.0351229v315.672296c0 140.119575-113.80347 254.657322-254.259722 256.035123l-317.695836 3.116428c-3.521319.034542-7.035561-.003686-10.541196-.114378l1.144754.031679-3.447679.075179c-1.184571.019821-2.369553-.001158-3.551445-.080592l-.885784-.069422-111.713224-10.004949c-135.905476-12.171588-240.049868-126.0599-240.049868-262.509326v-290.373638c0-137.307131 105.417264-251.6108038 242.275936-262.6991837l93.956581-7.6124242c1.350984-.1094576 2.706659-.1501769 4.061778-.122l7.799705.1633559 1.694755-.1198361c5.748705-.3801952 11.525187-.5645494 17.322491-.552164zm-213.255795 256.5528451v321.89431c0 110.979894 82.872984 201.803854 190.110374 214.528039l11.365355 1.014429 4.434455-.096377c2.94722.09306 5.909758.125577 8.886447.096377l317.695836-3.116428c6.116054-.059995 12.172366-.374335 18.15882-.932841 109.527551-12.456548 194.853907-104.170262 194.853907-214.604206v-315.672296c0-118.151063-97.668227-214.874144-218.14809-216.037047l-309.209014-3.116428c-120.479863-1.162904-218.14809 95.562604-218.14809 216.042468zm107.308249-209.709853-15.657522 1.269432c-116.087892 9.405518-205.506178 106.361539-205.506178 222.829828v290.373638c0 115.740756 88.338596 212.344455 203.617956 222.668784l11.726349 1.05512c-72.508588-40.17974-121.488854-117.445947-121.488854-206.592639v-321.89431c0-91.510288 51.61198-170.501752 127.308249-209.709853zm277.080245 520.669119c32.167242 0 58.243944 26.076702 58.243944 58.243944 0 32.167243-26.076702 58.243945-58.243944 58.243945-32.167243 0-58.243945-26.076702-58.243945-58.243945 0-32.167242 26.076702-58.243944 58.243945-58.243944zm0 20c-21.121548 0-38.243945 17.122397-38.243945 38.243944 0 21.121548 17.122397 38.243945 38.243945 38.243945 21.121547 0 38.243944-17.122397 38.243944-38.243945 0-21.121547-17.122397-38.243944-38.243944-38.243944zm10-410.512111v116.487889h-20v-116.487889z" />
</svg>
