<svg height="960" viewBox="0 0 960 960" width="960" xmlns="http://www.w3.org/2000/svg">
  <g fill="none" fill-rule="evenodd">
    <g stroke="#000">
      <path
        d="m479.656797 22c136.777073 0 247.656798 110.782248 247.656798 247.439076 0 6.550433-.254759 13.041415-.754918 19.463597-4.013866 50.842077-15.018547 94.416522-34.523878 130.726907l-2.143775 3.984804c-34.679882 64.368521-52.958092 93.882398-57.520256 126.743888l-.55314 4.026789c-8.841379 65.064715-8.284028 95.614668-8.571323 104.567341l-.011832.201881c-.257402 3.115233-4.221314 13.001536-14.075387 27.25123l-.681021.978303c-4.922198 7.024637-11.546829 19.787059-19.287678 24.755413-26.892289 17.260431-70.171887 19.591941-107.270181 19.680253h-3.39311l-3.378272-.009988c-36.587123-.178093-78.673917-2.756804-105.025616-19.670265-7.740849-4.968354-14.36548-17.730776-19.287678-24.755413l-.681022-.978303c-10.078028-14.57355-13.995119-24.583121-14.087218-27.453111l-.024304-.883272c-.242679-10.18209.034933-41.910354-9.100159-107.710858-4.65527-33.532133-23.592137-63.578621-59.664031-130.728692-19.310277-35.947282-30.274045-79.015818-34.401139-129.20561l-.122739-1.523082c-.500159-6.420397-.754918-12.911379-.754918-19.461812 0-136.656828 110.879725-247.439076 247.656797-247.439076z"
        stroke-width="40" />
      <path
        d="m267.100963 419.810919c34.86603 27.300749 105.717974 40.951124 212.555834 40.951124s177.689805-13.650375 212.555834-40.951124"
        stroke-width="20" />
      <path
        d="m340.227971 667.047216c36.306331 8.730565 82.729485 13.095848 139.269462 13.095848 57.724621 0 104.904036-4.550125 141.538245-13.650375"
        stroke-width="20" />
      <path
        d="m605.21188 692.697843-8.612622 14.425037-12.301414 29.790941c-.940945 2.428895-1.881036 4.76527-2.222887 7.196034l-.340996.372885c-1.53833 4.767139-2.735664 11.214598-4.017606 18.411566-1.281941 8.223103-2.221177 17.381692-3.162123 27.288854-.598239 10.934233-1.195624 22.521716-1.53833 33.456883-.341851 12.616422-.341851 24.577725 0 35.792323v3.738199l-27.775404 32.429813h.342706l-9.400906 8.878223-24.015897 22.896471-.598239.373819c-4.358602 4.111085-8.71635 8.224039-31.534913 9.251109h-.342705c-22.476712-1.02707-26.834459-5.140024-31.193916-9.251109l-.598239-.373819-24.015042-22.896471-9.400906-8.878223h.342705l-27.434408-32.429813h-.340996v-3.738199c.340996-11.214598.340996-23.175901 0-35.792323-.257243-10.935167-.940945-22.52265-1.539185-33.456883-.94009-9.907162-1.879326-19.065751-3.161268-27.288854-1.197334-7.196968-2.479275-13.644427-4.016751-18.411566h-.342706v-.372885c-.256388-2.430764-1.195624-4.767139-2.477566-7.196034l-18.172536-38.904491"
        stroke-linejoin="round" stroke-width="40" />
    </g>
    <path
      d="m386.12322 845.65631c-7.32103 35.957516 23.95006 53.936274 93.813268 53.936274s99.637046-17.978758 89.321514-53.936274c-28.223769 5.72188-57.954998 8.582821-89.193684 8.582821-31.238687 0-62.552386-2.860941-93.941098-8.582821z"
      fill="#000" />
    <path d="m385.081605 766.387572c24.754543 4.066666 60.505525 6.1 107.252944 6.1"
      stroke="#000" stroke-linecap="round" stroke-linejoin="round" stroke-width="20" />
    <path d="m385.081605 793.075072c24.754543 4.575 60.505525 6.8625 107.252944 6.8625"
      stroke="#000" stroke-linecap="round" stroke-linejoin="round" stroke-width="20" />
    <path d="m385.081605 821.287572c24.754543 4.066666 60.505525 6.1 107.252944 6.1"
      stroke="#000" stroke-linecap="round" stroke-linejoin="round" stroke-width="20" />
  </g>
</svg>
