<svg height="960" viewBox="0 0 960 960" width="960" xmlns="http://www.w3.org/2000/svg">
  <g fill="none" fill-rule="evenodd" stroke="#000" stroke-linejoin="round">
    <path
      d="m589.5 23c58.318631 0 111.216511 25.7109679 149.468951 67.5778122 37.628163 41.1835788 61.031049 98.0438608 61.031049 160.9221878 0 46.719518-12.921989 90.128122-34.99884 126.238345l-.00116 469.102019c0 20.327299-3.839265 36.042789-10.363401 47.521046-8.115222 14.277537-20.267701 23.166319-36.510124 26.594573-.587875.124081-1.173741.239455-1.788195.345943-.480235.021627-.961102.043281-1.442599.064959-167.848036 7.557137-259.041187 11.318673-273.579333 11.318673-6.93949 0-19.613956.623264-33.9391 1.312243-6.257895.300978-12.787491.582523-19.322162.822215l-2.063438.074274c-1.031493.036416-2.062412.071729-3.091709.105851l-2.056118.066632c-25.324439.801566-49.235808.842936-55.982081-1.200572-6.130889-1.857102-13.922247-4.367382-23.372958-7.534383-2.369047-.793885-6.140787-2.071907-11.32493-3.834014-55.854229-16.755805-86.286714-27.034016-91.691537-30.104867-13.388386-7.606861-21.483026-18.904983-26.1055-31.610018-5.46469-15.019895-5.519735-32.166018-5.259765-44.602614.034981-1.673426.068696-3.235261.075183-4.657565l.00105-458.039823c0-22.356254 3.621366-40.458763 10.16209-54.49277 5.336989-11.45123 12.580845-20.490789 21.621416-27.233586-.639539-7.157377-.966789-14.415183-.966789-21.756561 0-60.281088 22.047579-114.89476 57.644089-154.9010221 36.319851-40.8192126 86.693622-66.465227 142.472299-68.0238397l168.458043-2.7345825c7.530861-.8858011 15.179716-1.3405557 22.925569-1.3405557z"
      stroke-width="40" />
    <g stroke-linecap="round" stroke-width="20">
      <ellipse cx="591.885274" cy="248.071918" rx="114.363014" ry="120.178082" />
      <ellipse cx="589.462329" cy="251.94863" rx="201.069767" ry="220" />
      <path
        d="m540.178044 21.9486301c-103.927864 0-188.178044 99.8327729-188.178044 222.9827399 0 105.204189 47.637452 194.949664 130.349985 218.417537 9.406094 2.668773 44.956099 4.868681 106.650015 6.599723" />
      <path
        d="m218.418135 279.733264 134.715326 7.505994c-24.531658 8.711102-36.797488 32.905198-36.797488 72.582287v486.327839c0 21.05555-3.218727 80.746278 56.774884 78.186752" />
    </g>
  </g>
</svg>
