<svg height="960" viewBox="0 0 960 960" width="960" xmlns="http://www.w3.org/2000/svg">
  <path
    d="m472.41216 5.9898748c19.091967.02030894 40.224042.36476567 64.991422.98088395 76.994358 1.91532695 122.43501 4.84045435 164.459788 11.90140535 53.779562 9.035975 95.747718 24.8130209 129.715865 50.9663964 31.687533 24.3974448 53.892711 61.1634605 68.87731 108.3607365 12.006183 37.816102 19.279558 81.909778 23.091879 132.966205 2.574936 34.484774 3.415911 64.305982 3.438562 109.862959l.00021 3.361816c-.003263 9.041309-.036832 18.700662-.093904 29.129602-.066544 12.15992-.093778 17.768194-.102297 23.022322l-.000828.552026c-.000127.091876-.000248.183709-.000364.275534l-.000912.841141-.000778 1.130629-.000121.285691-.000209 1.161236c0 80.80327-3.278784 147.01922-12.040151 205.962161-11.987664 80.648158-33.334747 139.876635-69.868454 175.4283-15.449631 15.034338-27.190491 25.191168-40.509117 34.380812-16.006446 11.044198-33.16695 19.661862-53.405377 26.621057-39.580132 13.610043-93.070219 21.577978-179.49819 27.141759-92.362883 5.94584-148.827538 7.408199-198.651981 3.6885l-.765513-.058047-.690883.02893c-1.191081.038241-2.395067.023937-3.609706-.04516l-.730044-.048051-82.418774-6.160702c-1.927559-.144083-3.817238-.42394-5.659372-.830199l-.241221-.055818-1.462772-.168082c-64.838473-7.617282-114.229914-26.192222-152.661546-60.305882l-1.197426-1.071115c-44.7308084-40.321504-68.9863471-84.778765-80.3927078-145.169396-4.9719998-26.324101-7.6825291-56.097252-8.957778-94.107067-.0379704-1.131739-.0746643-2.256108-.1101159-3.375866l-.0419478-1.341674c-.0551412-1.786418-.107137-3.563857-.1561276-5.343615l-.0538539-2.003802c-.0058445-.222886-.0116429-.445874-.0173955-.668987l-.033967-1.340346c-.4301549-17.275084-.5900552-35.555791-.6056404-65.004315l-.0001696-11.477231c.0034192-8.557285.0194178-17.982945.0399011-28.464699.0214984-11.001155.0346265-18.724054.0414332-25.649188l.0009739-1.033097c.0004635-.513867.000892-1.023944.0012863-1.531278l.0007759-1.058211.0001787-.263551.0008022-1.313407.0001425-.262046.0008331-1.832424.0008751-4.761697c0-108.083616 3.300665-171.365701 14.4561643-229.160105 14.3484789-74.336591 41.9353429-130.169487 88.6110772-170.7231891 14.51332-12.6097391 31.608142-22.9272627 51.142158-31.2459278l.106846-.0458021.410812-.2252203c13.406046-7.2844813 34.614244-14.652987 65.429675-23.2012l.986736-.2732172c17.601769-4.8648434 31.322726-8.4406995 41.332908-10.7601522l.205869-.0472103.324144-.0893439c32.628136-8.904221 70.237912-13.95532942 114.577122-16.16282426l1.645273-.08046073c.354603-.01703021.709302-.03388311 1.064113-.05055921l2.130342-.09793921c16.88854-.75910155 34.10219-1.12115454 53.337941-1.14199789zm-240.094737 93.4746054c-82.481848 73.9325098-89.333568 206.4984518-89.333568 381.5287668 0 214.409155-5.981724 300.767277 77.091812 378.02295 36.563672 34.00302 85.996048 49.481248 149.91161 54.853921l-.01235-.21004c55.165953 4.644801 121.126889 1.753131 198.921895-3.254905 167.861913-10.806074 200.271912-30.364367 248.085999-76.89319 62.125402-60.455445 69.804962-229.016475 69.804962-352.723525 0-80.804086 4.693581-215.640873-30.065732-306.57842l-1.331499-3.409068c-11.465229-28.719837-27.031808-52.810682-48.146717-69.063501-59.105191-45.4951524-149.204535-51.5492641-270.840463-54.5742927-119.624791-2.9750126-243.173278-2.297698-304.085949 52.3013039zm-19.228474-9.4245352-.283095.1272489c-2.223913.9921657-4.186036 1.9502058-5.886369 2.8741203l.025597.2851132c-17.081078 6.8593296-32.119181 15.4813656-44.548424 26.2803776-82.4526129 71.638052-89.3019035 200.089879-89.3019035 369.688219 0 207.755078-5.9796043 291.43312 77.0644865 366.291203 24.947288 22.488128 55.887459 36.614132 93.333684 44.971971-13.553734-7.568674-25.846974-16.489734-37.037254-26.896329-41.343769-38.448354-63.37192-80.101473-73.946724-137.862179-4.742472-25.903888-7.362249-55.591331-8.60468-93.795485-.105843-3.254627-.201661-6.451547-.288208-9.654117l-.046293-1.747797-.045628-1.797355-.029373-1.201448c-.424719-17.644567-.582814-36.393907-.597975-66.638314l-.000183-11.639219c.003318-8.825964.019387-18.553437.03989-29.377392.022884-12.080726.036296-20.335388.0427-27.844178l.000831-1.019592c.000393-.507774.000755-1.012731.001085-1.515848l.00095-1.602703.000138-.266396.000806-1.863289.000848-4.84331c0-110.20936 3.249411-174.481333 14.077212-232.354167 12.904185-68.97077 36.722622-120.662895 76.027882-158.599135zm348.524325 116.627505c131.744859 9.212498 229.341139 139.306417 218.805752 289.969469s-125.287441 265.908129-257.0323 256.695631-229.341139-139.306417-218.805752-289.969469 125.287441-265.908129 257.0323-256.695631zm-237.081019 258.09076c-9.806044 140.232958 80.215148 260.229432 200.249601 268.623059 120.034452 8.393626 225.879845-97.906522 235.685889-238.139479 9.806044-140.232958-80.215148-260.229432-200.249601-268.623059-120.034452-8.393626-225.879845 97.906522-235.685889 238.139479z" />
</svg>
