<svg height="960" viewBox="0 0 960 960" width="960" xmlns="http://www.w3.org/2000/svg">
  <g fill="#000" fill-rule="nonzero">
    <path
      d="m306.099998 4.1476374c1.249855 0 2.499577.02572123 3.748373.07714737l79.800003 3.2862096c48.813687 2.01017542 87.351626 42.16779243 87.351626 91.02285113v762.9323095c0 48.855058-38.537939 89.012675-87.351626 91.022851l-79.800003 3.286209c-5.900105.24297-11.770962-.082928-17.545267-.963944l-.895104-.142634-95.003455-8.054957c-46.689199-3.958105-82.678579-42.659033-83.393697-89.356882l-.010848-1.417507v-751.880711c0-47.374928 36.310499-86.8429858 83.520637-90.7841557l96.010363-8.0157869.198626-.03140816c4.041519-.59671713 8.131448-.92258211 12.247255-.97959184zm0 40c-2.986889 0-5.913924.2562673-8.760316.7480142l-2.143548.1786759c-23.529488 4.5741146-41.292065 25.2925648-41.292065 50.159687v769.5319715c0 .696716.014249 1.393359.042738 2.089493.977312 23.880839 18.193138 43.261401 40.569962 47.935206l2.008152.168214c2.961714.562164 6.010117.867437 9.119983.892589l.604052-.000528c.281083-.006942.562624-.016174.844605-.027714l80.894757-3.310578c27.386015-1.120759 49.010505-23.648322 49.010505-51.057261v-762.9108143c0-27.4089387-21.62449-49.9365014-49.010505-51.0572606l-80.894757-3.3105782c-.308283-.0126164-.616666-.02244-.925111-.0294702-.022512.0003692-.045482.0003537-.068452.0003537zm-54.894879 4.5993147-51.356234 4.2887663c-26.481526 2.2107156-46.848885 24.3492198-46.848885 50.9228616v751.880711c0 26.548427 20.329912 48.674743 46.783449 50.917357l51.293833 4.350674c-10.082275-11.716956-16.432596-26.789931-17.113748-43.434037-.039639-.968593-.059465-1.937896-.059465-2.907299v-769.5319715c0-17.7728077 6.521062-34.02254 17.30105-46.4870624zm169.3518 161.9438089c.136983 5.521149-4.227746 10.10797-9.748894 10.244953l-127.242918 3.156971c-5.521149.136982-10.10797-4.227746-10.244953-9.748895-.136983-5.521148 4.227745-10.10797 9.748894-10.244953l127.242918-3.15697c5.521149-.136983 10.10797 4.227746 10.244953 9.748894zm223.985811-189.5978663 37.570406 2.5649791.400864.0291262 39.930205 1.5560809c48.408188 1.8847251 86.781598 41.2967912 87.544226 89.5656551l.011569 1.465375v729.451778c0 48.934207-38.658635 89.127267-87.555795 91.03103l-80.800003 3.145869c-6.698851.260813-13.355647-.211586-19.871666-1.394978l-.033536-.00681-.259283-.01373c-6.076224-.322737-14.099517-.783255-24.04003-1.379796l-.810189-.048666c-48.102743-2.893764-85.629498-42.748891-85.629498-90.937282v-731.750186c0-48.3614027 37.788754-88.2946561 86.076576-90.9613942l42.535971-2.349087c1.64249-.090708 3.289011-.080009 4.930183.0320359zm-7.612501 40.6003193c-28.22175 0-51.099998 22.8782486-51.099998 51.099999v735.341079c0 .662199.012872 1.324337.038609 1.986036 1.096857 28.200427 24.846999 50.172211 53.047426 49.075353l80.894757-3.146408c27.428305-1.066826 49.113961-23.612344 49.113961-51.061389v-729.048264c0-22.6696819-14.791388-41.9947582-35.393163-48.6381196-4.024512-1.1989488-8.260826-1.9180555-12.643798-2.0887022l-40.682338-1.585503c-.271819-.0229092-.544178-.0436863-.817057-.0623161l-8.816628-.6023417-31.655734-1.2308144c-.6617-.0257369-1.323837-.038609-1.986037-.038609zm-54.585207 5.5378143-.631053.2707716c-18.146537 7.8969497-30.713969 25.9817671-30.713969 46.8695401v731.750186c0 20.908567 12.594429 39.01995 30.786864 46.90263-9.404486-11.535724-15.279912-26.109028-15.902913-42.126514-.03581-.920682-.05372-1.841973-.05372-2.76335v-735.341079c0-17.3364598 6.204789-33.2237131 16.514791-45.5621847z" />
    <path
      d="m743.035169 210.625101c5.522412-.069348 10.055429 4.351235 10.125581 9.873647.068542 5.522412-4.35204 10.055429-9.874452 10.124776l-126.41866 1.587495c-5.522412.069347-10.055429-4.351235-10.125581-9.873647-.068543-5.522412 4.35204-10.055429 9.874452-10.124777z" />
  </g>
</svg>
