<svg height="960" viewBox="0 0 960 960" width="960" xmlns="http://www.w3.org/2000/svg">
  <g fill="none" fill-rule="evenodd">
    <path
      d="m858.219867 338.444635c-79.031818-38.373621-198.689352 43.673473-266.623085 182.878478-67.933733 139.272091-58.920742 283.776948 20.111075 322.217655 13.18318 6.373242 27.509799 9.459232 42.509029 9.459232 75.063411 0 167.547453-76.34472 224.248578-192.33771 67.866472-139.272091 58.853482-283.844035-20.245597-322.217655zm-255.651986 483.434262c-2.620185-1.610491-6.248134-4.76437-9.741715-7.918248l-2.149896-1.878906c-2.284264-2.013114-7.12153-7.582729-11.824427-13.286551-36.212309-58.3803-29.762622-167.155549 22.036432-273.31375 54.687977-112.264647 142.968076-186.481442 213.444351-186.481442 7.591819 0 14.982087.872349 22.036432 2.617048l-.201552.469726c16.661693 8.119559 29.225147 19.594308 38.832494 36.168945-6.584056-5.972238-13.907139-10.937918-21.902064-14.762834-37.01852-17.983817-83.510018-10.468192-130.942096 21.271902-46.491499 31.13616-88.548837 82.067939-118.445826 143.333703-29.829806 61.265763-44.005682 125.752508-39.907443 181.515761 4.232608 56.836913 26.940883 98.038642 63.959403 116.089562 5.37474 2.617048 10.951032 4.697266 16.661693 6.240653-15.721114.53683-29.89699-2.818359-41.855786-10.065569zm264.825903-165.045886c-29.051999 59.610078-69.872749 109.01663-114.795748 139.090183-14.526 9.733627-28.85025 16.983502-42.771 21.816751-24.546249 6.779975-47.478499 5.504535-67.249999-4.094836-33.019749-16.043704-53.261999-53.568516-56.960749-105.727335-3.766-52.695846 9.8185-113.715622 38.26525-171.983132 28.379499-58.20038 68.191499-106.600005 112.038498-136.13653 28.31225-19.064484 56.019249-28.798112 81.103499-28.798112 13.3155 0 25.89125 2.752267 37.391 8.32393 6.792249 3.289295 12.979249 7.518388 18.560999 12.485895 6.5905 7.048489 12.30675 15.30529 17.0815 24.770404.33625 1.275441.6725 2.550882 1.00875 3.826322l.73975-.201385c7.86825 16.916374 12.7775 37.256299 14.526 60.549877 3.96775 53.971287-9.8185 116.46789-38.93775 176.077968z"
      fill="#000" fill-rule="nonzero" />
    <path
      d="m947.11654 443.316996c-5.240609-70.666846-33.392081-121.853288-79.280997-144.222166l-490.534369-215.2920557-5.039046-2.0152143-.134375.2686952c-76.996629-27.4740875-168.976022 9.2028118-239.925795 87.7961678-25.396794-4.903688-65.5076032 36.87842-94.196574 99.350062-29.09209443 63.412075-34.33270268 121.920462-12.8999587 136.900221-12.5640223 109.560482 24.2546099 206.425113 101.8559247 242.027232l460.30009 227.248993c16.192136 7.859336 33.795205 11.621069 52.137334 11.621069 87.746594 0 193.969692-85.780953 257.931987-217.172922 37.288944-76.443794 54.9592-156.918016 49.785779-226.510082zm-819.253292-268.316996h.136752c-2.666667 2.934783-5.333333 5.934783-8 9l-8-4.043478c5.74359-3.195652 11.145299-4.956522 15.863248-4.956522zm-18.853444 6 3.77451 1.962406 5.215686 2.706767c-1.166667 1.421053-2.333333 2.909774-3.5 4.330827l-10.5-5.481203c1.647059-1.285714 3.362745-2.503759 5.009804-3.518797zm-6.733488 6 10.723684 5.695364c-1.118421 1.456954-2.171053 2.847682-3.289474 4.304636l-11.710526-6.291391c1.4473684-1.324503 2.894737-2.582781 4.276316-3.708609zm-6.4074635 5 5.1147545 2.75 7.016393 3.823171c-1.04918 1.475609-2.098361 2.951219-3.147541 4.426829l-9.1803279-4.963415-3.6721311-2.012195c1.3114754-1.47561 2.6229508-2.75 3.8688525-4.02439zm-6.17893 6 13.3100775 7.37931c-1.054264 1.517242-2.042636 3.034483-3.0968992 4.62069l-3.4922481-1.931034-10.4108527-5.793104c1.1860465-1.517241 2.4379845-2.896552 3.6899225-4.275862zm-6.130221 7 14.4402985 7.558011c-1.0074627 1.458564-2.0149254 2.983425-3.0223881 4.441989l-14.9776119-7.756906c1.2089552-1.458564 2.3507463-2.850829 3.5597015-4.243094zm-4.3407234 6 14.7810219 8.272727c-.9854015 1.598931-1.9051095 3.128343-2.8905109 4.727273l-15.1094891-8.481283c.9854015-1.529412 2.1021898-3.058824 3.2189781-4.518717zm-5.9734265 7 15.7544484 8.352332c-.9466192 1.549222-1.9608541 3.098445-2.9074733 4.647668l-16.0925267-8.487047c1.0818505-1.549222 2.1637011-3.098445 3.2455516-4.512953zm-4.2349882 7 4.0140845 2.111675 11.9753521 6.269036c-.9366197 1.517766-1.8732394 3.035533-2.7429577 4.619289l-16.2570423-8.51269c1.0035211-1.583757 2.0070423-3.035533 3.0105634-4.48731zm-4.1737578 6 16.1631944 8.45c-.8576389 1.495-1.78125 3.055-2.6388889 4.55l-16.3611111-8.515c.9236111-1.495 1.9131944-2.99 2.8368056-4.485zm-4.1505987 7 16.3137931 9.103448c-.8517241 1.655173-1.7034483 3.24138-2.5551724 4.896552l-7.7965517-4.344828-8.6482759-4.827586c.8517241-1.586207 1.7689655-3.241379 2.6862069-4.827586zm-4.9558315 7 17.2696246 9.106796c-.887372 1.631068-1.7064846 3.262136-2.5255973 4.893204l-7.7815699-4.07767-9.6928328-5.097087c.887372-1.631068 1.774744-3.262136 2.7303754-4.825243zm-4.1365187 7 17.4061433 9.130435c-.8191126 1.623188-1.6382253 3.246377-2.4573379 4.869565l-17.5426621-9.198068c.887372-1.555555 1.7064846-3.178744 2.5938567-4.801932zm-3.1365188 8 17.5426621 9.110048c-.8191126 1.607655-1.5699659 3.282296-2.3890785 4.889952l-8.327645-4.354067-9.2832765-4.822966c.8191126-1.607656 1.6382253-3.215311 2.4573379-4.822967zm-6.2518584 11.312796c.6849315-1.459715 1.369863-2.85308 2.0547945-4.312796l17.739726 9.156398c-.3424658.663507-.6849315 1.393365-.9589041 2.056872-.4109589.92891-.890411 1.85782-1.3013699 2.78673l-17.6712328-9.090047-.0684932-.066351c.0684932-.132702.1369863-.331754.2054795-.530806zm-1.0061668 2.687204 17.8006873 9.113208c-.7560137 1.650943-1.5120275 3.301886-2.1993127 4.886792l-8.5910653-4.424528-9.209622-4.68868c.6872852-1.584905 1.443299-3.235849 2.1993127-4.886792zm-3.1682782 8 11.4 6.075472 5.5689655 2.971698c-.7206897 1.650943-1.3758621 3.301887-2.0310345 4.95283l-6.0931034-3.235849-10.8758621-5.811321c.7206897-1.650943 1.3758621-3.301887 2.0310345-4.95283zm-3.0518678 8 8.2465277 4.383178 8.7743056 4.644859c-.6597222 1.635514-1.3194444 3.271028-1.9791667 4.971963l-11.0173611-5.757009-6.0034722-3.140187c.6597222-1.766355 1.3194444-3.46729 1.9791667-5.102804zm-3.1728287 7 11.9753521 6.244131 5.2183099 2.760564c-.6690141 1.643192-1.2711268 3.352113-1.8732394 4.995305l-17.1267606-8.938967c.5352113-1.643193 1.1373239-3.352113 1.806338-5.061033zm-2.1099094 8 15.7428571 8.122642 1.5607143.792452c-.6107143 1.716981-1.2214286 3.367925-1.8321429 5.084906l-17.1678571-8.849057c.475-1.716981 1.0857143-3.433962 1.6964286-5.150943zm-3.0442547 8 4.9565218 2.509434 12.3913043 6.339623c-.6195652 1.716981-1.1702899 3.433962-1.7898551 5.150943l-17.2101449-8.783019c.6195652-1.716981 1.1014493-3.5 1.6521739-5.216981zm-2.3088903 8 16.6567164 8.733333c-.5373134 1.733334-1.0746269 3.466667-1.6119403 5.266667l-14.4402985-7.6-1.9477612-1.066667c.4029851-1.733333.8731343-3.533333 1.3432836-5.333333zm-2.0379401 8 10.3740458 5.384615 6.3206107 3.298077c-.5496183 1.75-1.0305344 3.567308-1.5801527 5.317308l-16.4198473-8.548077c.480916-1.817308.8931298-3.634615 1.3053435-5.451923zm-1.2894072 8 15.9840637 8.536585c-.4741036 1.843903-.9482072 3.619513-1.4223108 5.463415l-15.5776892-8.331707c.2709163-1.843903.6095618-3.756098 1.0159363-5.668293zm4.1711141 63c-3.6258993-3.916031-6.0215828-10.099237-7.1870504-18l9 5.083969c-.7122302 4.259542-1.294964 8.587787-1.8129496 12.916031zm2.7843782-16-10.4914286-5.559322c-.2057143-2.033898-.4114286-4.20339-.48-6.440678l12 6.305085c-.3428571 1.898305-.6857143 3.79661-1.0285714 5.694915zm.9235714-8-11.895-6.743316c0-2.016042.065-4.101604.13-6.256684l12.87 7.299465c-.39 1.807487-.78 3.754011-1.105 5.700535zm2.8269731-9-13.7219731-7.2c.1345291-1.866667.3363229-3.866667.5381166-5.8l14.4618834 7.533333c-.470852 1.8-.8744395 3.666667-1.2780269 5.466667zm-13.7219731-16.079602c.2677824-1.950249.5355649-3.900498.8033473-5.920398l15.1966527 8.358209c-.4686192 1.880597-.8702929 3.761194-1.3389121 5.641791zm869.418815 313.732993c-74.734046 153.579616-207.333211 243.576599-295.643045 200.628076l-460.50151-227.445698c-101.8184165-46.7124-128.9699942-206.20668-60.4189813-355.551934 55.6472923-121.45224 156.3903993-199.283835 247.3885083-199.283835 18.750718 0 37.030988 3.2933922 54.437569 10.149025l2.15062.806545 488.190743 214.27213c42.205917 20.566898 68.147771 68.623539 73.12108 135.230716 5.040516 67.816995-12.298858 146.320711-48.724984 221.194975z"
      fill="#000" fill-rule="nonzero" />
    <g stroke="#000" stroke-linejoin="round">
      <path
        d="m946.88267 443.052345c-5.240608-70.666847-33.392081-121.853289-79.280996-144.222167l-490.534369-215.2920553-5.039047-2.0152143-.134374.2686952c-76.996629-27.4740876-168.976023 9.2028118-239.925796 87.7961674-25.396794-4.903688-65.5076028 36.878421-94.1965736 99.350063-29.09209445 63.412075-34.33270269 121.920462-12.8999587 136.900221-12.5640223 109.560481 24.2546099 206.425113 101.8559243 242.027231l460.300091 227.248994c16.192135 7.859335 33.795204 11.621068 52.137333 11.621068 87.746594 0 193.969692-85.780953 257.931988-217.172922 37.288943-76.443794 54.959199-156.918016 49.785778-226.510081z"
        stroke-width="20" />
      <path
        d="m887.184945 664.655255c-74.734046 153.385947-207.333211 243.26944-295.643045 200.375077l-460.50151-227.158882c-101.8184162-46.653493-128.96999381-205.946645-60.4189809-355.103571 55.6472929-121.299083 156.3903989-199.0325306 247.3885079-199.0325306 18.750719 0 37.030989 3.2892391 54.437569 10.1362267l2.15062.8055279 488.190743 214.001925c42.205918 20.540963 68.147772 68.537003 73.121081 135.060186 5.040515 67.731476-12.298859 146.136196-48.724985 220.916041z"
        stroke-width="40" />
      <path
        d="m857.985997 338.179983c-79.031817-38.37362-198.689352 43.673474-266.623085 182.878478-67.933732 139.272091-58.920742 283.776949 20.111076 322.217656 13.183179 6.373241 27.509798 9.459231 42.509028 9.459231 75.063412 0 167.547454-76.34472 224.248579-192.337709 67.866471-139.272091 58.853481-283.844036-20.245598-322.217656z"
        stroke-width="20" />
    </g>
  </g>
</svg>
