<?xml version="1.0" encoding="UTF-8"?>
<svg width="802px" height="945px" viewBox="0 0 802 945" version="1.1"
  xmlns="http://www.w3.org/2000/svg" xmlns:xlink="http://www.w3.org/1999/xlink">
  <title>icon</title>
  <g id="Page-1" stroke="none" stroke-width="1" fill="none" fill-rule="evenodd">
    <g id="icon" transform="translate(20.318323, 20.456104)">
      <g id="Group" stroke-linejoin="round" stroke="#000000">
        <path
          d="M94.5194686,16.3834064 C145.43702,4.32319022 176.544012,-0.712966377 187.857733,0.0806555233 L188.839928,0.151801023 L661.02377,36.4700427 C688.855613,38.610742 713.551162,51.1720791 731.403969,70.1506574 C749.302162,89.1774832 760.320727,114.654816 760.729611,142.547819 L760.741362,144.075049 L760.741362,744.903225 C760.741362,772.148208 750.599587,797.233974 733.723288,816.359018 C716.805362,835.531235 693.118946,848.71156 666.097714,852.074298 L664.616977,852.248348 L262.410851,896.461026 L190.75678,903.102508 C187.074942,903.44377 183.379297,903.614675 179.681677,903.614675 C171.655584,903.614675 136.592991,895.31037 74.5326406,877.442276 C51.4742306,869.740992 32.9078366,855.540593 19.9715186,837.33845 C7.03499961,819.136026 -0.271199395,796.931722 0.00770360515,773.473924 L7.88251761,120.951327 C8.19023961,95.4320132 17.4098506,71.7625642 32.8104556,53.2293603 C48.1490236,34.7708135 69.6188876,21.4072135 94.5194686,16.3834064 Z"
          id="Path" stroke-width="40"></path>
        <path
          d="M224.59601,889.87329 L281.427211,882.298227 L683.517478,837.350905 C728.058043,832.371975 761.741362,794.7136 761.741362,749.895616 L761.741362,135.184888 C761.741362,89.6157212 726.95367,51.5846531 681.564949,47.5333538 L210.465745,5.48405462 C155.455965,0.574000323 106.881343,41.187852 101.971289,96.1976312 C101.774074,98.4071222 101.650433,100.622564 101.600571,102.840279 L88.7413616,674.777547 L88.7413616,770.925275 C88.7413616,837.199445 142.467192,890.925275 208.741362,890.925275 C214.043682,890.925275 219.340173,890.573843 224.59601,889.87329 L224.59601,889.87329 Z"
          id="Path" stroke-width="20" stroke-linecap="round"></path>
        <polyline id="Path" stroke-width="20" stroke-linecap="round"
          points="325.371639 751.69986 366.775401 775.295173 406.191132 741.858554"></polyline>
        <polyline id="Path" stroke-width="20" stroke-linecap="round"
          points="473.191132 759.165887 514.594894 725.866249 554.010626 749.086797"></polyline>
        <path
          d="M638.135305,780.328984 C661.891468,787.591972 688.598762,769.114812 697.787718,739.059092 C706.976674,709.003373 695.16762,678.750583 671.411457,671.487595 C647.655295,664.224608 620.948,682.701768 611.759045,712.757487 C602.570089,742.813207 614.379143,773.065996 638.135305,780.328984 Z"
          id="Path" stroke-width="20" stroke-linecap="round"></path>
      </g>
      <g id="solid" transform="translate(245.681677, 313.467994)">
        <path
          d="M10.3670272,237.248968 L126.367027,232.988582 C131.743423,232.791121 136,228.375341 136,222.99532 L136,199.391133 C136,193.868286 131.522847,189.391133 126,189.391133 C125.941431,189.391133 125.882863,189.391648 125.824304,189.392677 L56.1756963,190.616566 C50.6537013,190.7136 46.098578,186.315801 46.0015436,180.793806 C46.0005145,180.735246 46,180.676678 46,180.618109 L46,152.943515 C46,147.520323 50.3227542,143.085529 55.7441711,142.946788 L126.255829,141.142305 C131.677246,141.003564 136,136.56877 136,131.145578 L136,30.8070785 C136,28.0174875 134.83478,25.3546959 132.785735,23.4617534 L115.937373,7.89695298 C114.051717,6.15495205 111.568343,5.20485776 109.001481,5.24340544 L9.8498426,6.73240857 C4.3861627,6.81445902 -2.44554009e-15,11.2669852 0,16.7312811 L0,40.659475 C4.22906743e-15,46.1823225 4.4771525,50.659475 10,50.659475 C10.0580063,50.659475 10.1160116,50.6589703 10.1740092,50.6579609 L81.8259908,49.4109621 C87.3480021,49.3148595 91.9023833,53.7134275 91.9984859,59.2354388 C91.9994953,59.2934364 92,59.3514417 92,59.409448 L92,87.9933994 C92,93.4421798 87.6378176,97.8880555 82.190021,97.9915938 L27.2304261,99.0361303 C24.5261959,99.0875256 21.9581133,100.232142 20.112019,102.208867 L2.69157185,120.861986 C0.962001801,122.713941 -3.21079989e-14,125.153446 0,127.687444 L0,227.255705 C2.45271059e-15,232.778553 4.4771525,237.255705 10,237.255705 C10.1223733,237.255705 10.2447363,237.253459 10.3670272,237.248968 Z"
          id="Path-2" fill="#000000"></path>
        <path
          d="M211,29.4861073 L211,217.947337 C211,223.470185 215.477153,227.947337 221,227.947337 C221.181947,227.947337 221.363861,227.942371 221.545537,227.932445 L244.545537,226.675839 C249.848509,226.38611 254,222.001611 254,216.69073 L254,12.5826754 C254,7.05982794 249.522847,2.58267544 244,2.58267544 L237.256815,2.58267544 C234.537021,2.58267544 231.934557,3.69049619 230.049233,5.65080954 L213.792418,22.5542414 C212.000761,24.4171615 211,26.9014399 211,29.4861073 Z"
          id="Path-3" stroke="#979797" fill="#000000"></path>
        <path
          d="M384,0 L360,0 C354.477153,1.01453063e-15 350,4.4771525 350,10 L350,32.1793455 C350,37.702193 354.477153,42.1793455 360,42.1793455 L384,42.1793455 C389.522847,42.1793455 394,37.702193 394,32.1793455 L394,10 C394,4.4771525 389.522847,-1.01453063e-15 384,0 Z"
          id="Path-4" stroke="#979797" fill="#000000"></path>
        <path
          d="M384.435151,112.141961 L337,112.141961 C331.477153,112.141961 327,116.619113 327,122.141961 L327,168.711223 C327,174.23407 331.477153,178.711223 337,178.711223 C337.128131,178.711223 337.25625,178.70876 337.384287,178.703836 L362.615713,177.733509 C368.134481,177.521273 372.780378,181.823068 372.992613,187.341836 C372.997537,187.469872 373,187.597992 373,187.726123 L373,192.42984 C373,197.872444 368.647347,202.315659 363.205896,202.42772 L336.794104,202.971644 C331.352653,203.083705 327,207.52692 327,212.969524 L327,213.299894 C327,218.728298 331.400591,223.12889 336.828996,223.12889 C336.926696,223.12889 337.024391,223.127433 337.122048,223.12452 L384.29815,221.717337 C389.702498,221.556134 394,217.128534 394,211.721783 L394,165.978487 C394,160.455639 389.522847,155.978487 384,155.978487 L358.910244,155.978487 C353.387397,155.978487 348.910244,151.501334 348.910244,145.978487 C348.910244,145.688417 348.922865,145.398485 348.948071,145.109513 L349.235236,141.817371 C349.672472,136.804768 353.766063,132.897685 358.793596,132.694501 L384.442952,131.657901 C389.782466,131.442108 394,127.050683 394,121.70681 C394,116.42429 389.717671,112.141961 384.435151,112.141961 Z"
          id="Path-5" stroke="#979797" fill="#000000"></path>
        <path
          d="M291.5,205.075909 C297.286885,204.837684 302,209.186922 302,214.792655 C302,220.406316 297.286885,225.162235 291.5,225.413608 C285.696721,225.665693 281,221.307833 281,215.680986 C281,210.062087 285.696721,205.314809 291.5,205.075909 Z"
          id="Path"></path>
      </g>
    </g>
  </g>
</svg>
